<svg width="130" height="130" viewBox="0 0 130 130" fill="none" xmlns="http://www.w3.org/2000/svg">
<path d="M25.3529 28C18.8529 26.5 9.65214 32.5915 5.65214 41C5.38518 41.6595 5.1289 42.3244 4.8835 42.9947C2.37113 49.8563 1 57.268 1 65C1 76.6572 4.11662 87.5865 9.56206 97C4.53141 83 6.46375 48 22.9638 37.5C22.3853 34.7742 23.1999 31.4538 25.173 28.2837C25.232 28.189 25.2919 28.0944 25.3529 28Z" fill="#EE3A3A"/>
<path d="M45.5 18.7198C66 2.21977 103.86 13.1726 115.36 25.5C115.04 25.0927 114.715 24.6894 114.386 24.2901C102.647 10.0662 84.8822 1 65 1C54.561 1 44.7058 3.49926 36 7.93206C32.9612 10.3924 32.5 18.6742 34 20.1742C37.8196 18.1743 41.7477 17.5611 44.7543 18.4583C45.0098 18.5345 45.2585 18.6217 45.5 18.7198Z" fill="#3B88E3"/>
<path d="M22.9638 37.5C6.46375 48 4.53141 83 9.56206 97C19.523 114.219 37.2762 126.367 58 128.622C35.5334 120.512 18.2207 69.1528 31.4408 43.116C28.5225 43.262 25.9781 42.4105 24.386 40.492C23.6696 39.6287 23.2011 38.6157 22.9645 37.5037L22.9638 37.5Z" fill="#FBDA64"/>
<path d="M49.5465 28C84.5465 28.5 118 53 127.907 76.8423C127.938 76.6715 127.97 76.5004 128 76.3291C128.056 76.0194 128.109 75.7088 128.16 75.3976C128.713 72.0135 129 68.5404 129 65C129 50.0941 123.904 36.3785 115.36 25.5C103.86 13.1726 66 2.21977 45.5 18.7198C46.5775 19.1575 47.5101 19.8138 48.2417 20.6953C49.7175 22.4737 50.1413 24.8872 49.6525 27.4934C49.6209 27.6615 49.5856 27.8304 49.5465 28Z" fill="#FBDA64"/>
<path d="M5.65214 41C9.65214 32.5915 18.8529 26.5 25.3529 28C26.5178 26.1972 28.0572 24.4506 29.9278 22.8983C31.163 21.8733 32.4548 21.0058 33.7619 20.3008C33.8412 20.258 33.9206 20.2158 34 20.1742C32.5 18.6742 32.9612 10.3924 36 7.93206C22.3062 14.9047 11.4563 26.6612 5.65214 41Z" fill="#FBDA64"/>
<path d="M65 129C80.1139 129 94.0041 123.761 104.954 115C78.6662 96.1194 55.7892 57.9852 43.7275 37.8793L43.537 37.5616C43.2658 37.8083 42.9867 38.0509 42.6999 38.289C39.0861 41.2879 34.9873 42.9385 31.4408 43.116C18.2207 69.1528 35.5334 120.512 58 128.622C58.152 128.638 58.3041 128.654 58.4564 128.67C60.6079 128.888 62.7909 129 65 129Z" fill="#3B88E3"/>
<path d="M127.907 76.8423C118 53 84.5465 28.5 49.5465 28C48.8065 31.2109 46.7187 34.6666 43.537 37.5616L43.7275 37.8793C55.7892 57.9852 78.6662 96.1194 104.954 115C116.68 105.617 125.034 92.1951 127.907 76.8423Z" fill="#EE3A3A"/>
<path d="M43.537 37.5616C46.7187 34.6666 48.8065 31.2109 49.5465 28C49.5856 27.8304 49.6209 27.6615 49.6525 27.4934C50.1413 24.8872 49.7175 22.4737 48.2417 20.6953C47.5101 19.8138 46.5775 19.1575 45.5 18.7198C45.2585 18.6217 45.0098 18.5345 44.7543 18.4583C41.7477 17.5611 37.8196 18.1743 34 20.1742C33.9206 20.2158 33.8412 20.258 33.7619 20.3008C32.4548 21.0058 31.163 21.8733 29.9278 22.8983C28.0572 24.4506 26.5178 26.1972 25.3529 28C25.2919 28.0944 25.232 28.189 25.173 28.2837C23.1999 31.4538 22.3853 34.7742 22.9638 37.5L22.9645 37.5037C23.2011 38.6157 23.6696 39.6287 24.386 40.492C25.9781 42.4105 28.5225 43.262 31.4408 43.116C34.9873 42.9385 39.0861 41.2879 42.6999 38.289C42.9867 38.0509 43.2658 37.8083 43.537 37.5616Z" fill="#EE3A3A"/>
<path d="M48.2417 20.6953C47.3462 19.6162 46.1494 18.8747 44.7543 18.4583M48.2417 20.6953C47.5101 19.8138 46.5775 19.1575 45.5 18.7198M48.2417 20.6953C49.7175 22.4737 50.1413 24.8872 49.6525 27.4934M29.9278 22.8983C28.0572 24.4506 26.5178 26.1972 25.3529 28M29.9278 22.8983C31.163 21.8733 32.4548 21.0058 33.7619 20.3008M29.9278 22.8983C27.9593 24.5319 26.3574 26.3807 25.173 28.2837M129 65C129 50.0941 123.904 36.3785 115.36 25.5M129 65C129 68.5403 128.713 72.0136 128.16 75.3976C128.109 75.7088 128.056 76.0194 128 76.3291M129 65C129 49.536 123.515 35.353 114.386 24.2901M65 129C80.1139 129 94.0041 123.761 104.954 115M65 129C62.7909 129 60.6079 128.888 58.4564 128.67M65 129C96.4802 129 122.652 106.271 128 76.3291M1 65C1 76.6572 4.11662 87.5865 9.56206 97M1 65C1 57.268 2.37113 49.8563 4.8835 42.9947M1 65C1 98.1371 26.184 125.392 58.4564 128.67M65 1C54.561 1 44.7058 3.49926 36 7.93206M65 1C37.3858 1 13.8563 18.4889 4.8835 42.9947M65 1C84.8822 1 102.647 10.0662 114.386 24.2901M25.3529 28C18.8529 26.5 9.65214 32.5915 5.65214 41M25.3529 28C25.2919 28.0944 25.232 28.189 25.173 28.2837M5.65214 41C11.4563 26.6612 22.3062 14.9047 36 7.93206M5.65214 41C5.38518 41.6595 5.1289 42.3244 4.8835 42.9947M43.5 37.5C43.5123 37.5205 43.5246 37.5411 43.537 37.5616M104.954 115C78.6662 96.1194 55.7892 57.9852 43.7275 37.8793M104.954 115C116.68 105.617 125.034 92.1951 127.907 76.8423M22.9638 37.5C6.46375 48 4.53141 83 9.56206 97M22.9638 37.5L22.9645 37.5037M22.9638 37.5C22.3853 34.7742 23.1999 31.4538 25.173 28.2837M9.56206 97C19.523 114.219 37.2762 126.367 58 128.622M31.5 43C31.4802 43.0386 31.4605 43.0773 31.4408 43.116M58 128.622C35.5334 120.512 18.2207 69.1528 31.4408 43.116M58 128.622C58.152 128.638 58.3041 128.654 58.4564 128.67M49.5465 28C84.5465 28.5 118 53 127.907 76.8423M49.5465 28C48.8065 31.2109 46.7187 34.6666 43.537 37.5616M49.5465 28C49.5856 27.8304 49.6209 27.6615 49.6525 27.4934M127.907 76.8423C127.938 76.6715 127.97 76.5004 128 76.3291M45.5 18.7198C66 2.21977 103.86 13.1726 115.36 25.5M45.5 18.7198C45.2585 18.6217 45.0098 18.5345 44.7543 18.4583M115.36 25.5C115.04 25.0927 114.715 24.6894 114.386 24.2901M34 20.1742C32.5 18.6742 32.9612 10.3924 36 7.93206M34 20.1742C33.9206 20.2158 33.8412 20.258 33.7619 20.3008M34 20.1742C37.8196 18.1743 41.7477 17.5611 44.7543 18.4583M43.7275 37.8793L43.537 37.5616M43.7275 37.8793C43.6637 37.7729 43.6002 37.667 43.537 37.5616M43.537 37.5616C43.2658 37.8083 42.9867 38.0509 42.6999 38.289C39.0861 41.2879 34.9873 42.9385 31.4408 43.116M43.537 37.5616C46.8867 34.5137 49.024 30.8443 49.6525 27.4934M31.4408 43.116C28.5225 43.262 25.9781 42.4105 24.386 40.492C23.6696 39.6287 23.2011 38.6157 22.9645 37.5037M22.9645 37.5037C22.3845 34.7773 23.199 31.4553 25.173 28.2837M33.7619 20.3008C37.6559 18.2005 41.6852 17.5424 44.7543 18.4583" stroke="#13192E" stroke-width="2"/>
</svg>
