<svg width="132" height="132" viewBox="0 0 132 132" fill="none" xmlns="http://www.w3.org/2000/svg">
<path d="M26.3529 29C19.8529 27.5 10.6521 33.5915 6.65214 42C6.38518 42.6595 6.1289 43.3244 5.8835 43.9947C3.37113 50.8563 2 58.268 2 66C2 77.6572 5.11662 88.5865 10.5621 98C5.53141 84 7.46375 49 23.9638 38.5C23.3853 35.7742 24.1999 32.4538 26.173 29.2837C26.232 29.189 26.2919 29.0944 26.3529 29Z" fill="#EE3A3A"/>
<path d="M46.5 19.7198C67 3.21977 104.86 14.1726 116.36 26.5C116.04 26.0927 115.715 25.6894 115.386 25.2901C103.647 11.0662 85.8822 2 66 2C55.561 2 45.7058 4.49926 37 8.93206C33.9612 11.3924 33.5 19.6742 35 21.1742C38.8196 19.1743 42.7477 18.5611 45.7543 19.4583C46.0098 19.5345 46.2585 19.6217 46.5 19.7198Z" fill="#3B88E3"/>
<path d="M23.9638 38.5C7.46375 49 5.53141 84 10.5621 98C20.523 115.219 38.2762 127.367 59 129.622C36.5334 121.512 19.2207 70.1528 32.4408 44.116C29.5225 44.262 26.9781 43.4105 25.386 41.492C24.6696 40.6287 24.2011 39.6157 23.9645 38.5037L23.9638 38.5Z" fill="#FBDA64"/>
<path d="M50.5465 29C85.5465 29.5 119 54 128.907 77.8423C128.938 77.6715 128.97 77.5004 129 77.3291C129.056 77.0194 129.109 76.7088 129.16 76.3976C129.713 73.0136 130 69.5403 130 66C130 51.0941 124.904 37.3785 116.36 26.5C104.86 14.1726 67 3.21977 46.5 19.7198C47.5775 20.1575 48.5101 20.8138 49.2417 21.6953C50.7175 23.4737 51.1413 25.8872 50.6525 28.4934C50.6209 28.6615 50.5856 28.8304 50.5465 29Z" fill="#FBDA64"/>
<path d="M6.65214 42C10.6521 33.5915 19.8529 27.5 26.3529 29C27.5178 27.1972 29.0572 25.4506 30.9278 23.8983C32.163 22.8733 33.4548 22.0058 34.7619 21.3008C34.8412 21.258 34.9206 21.2158 35 21.1742C33.5 19.6742 33.9612 11.3924 37 8.93206C23.3062 15.9047 12.4563 27.6612 6.65214 42Z" fill="#FBDA64"/>
<path d="M66 130C81.1139 130 95.0041 124.761 105.954 116C79.6662 97.1194 56.7892 58.9852 44.7275 38.8793L44.537 38.5616C44.2658 38.8083 43.9867 39.0509 43.6999 39.289C40.0861 42.2879 35.9873 43.9385 32.4408 44.116C19.2207 70.1528 36.5334 121.512 59 129.622C59.152 129.638 59.3041 129.654 59.4564 129.67C61.6079 129.888 63.7909 130 66 130Z" fill="#3B88E3"/>
<path d="M128.907 77.8423C119 54 85.5465 29.5 50.5465 29C49.8065 32.2109 47.7187 35.6666 44.537 38.5616L44.7275 38.8793C56.7892 58.9852 79.6662 97.1194 105.954 116C117.68 106.617 126.034 93.1951 128.907 77.8423Z" fill="#EE3A3A"/>
<path d="M44.537 38.5616C47.7187 35.6666 49.8065 32.2109 50.5465 29C50.5856 28.8304 50.6209 28.6615 50.6525 28.4934C51.1413 25.8872 50.7175 23.4737 49.2417 21.6953C48.5101 20.8138 47.5775 20.1575 46.5 19.7198C46.2585 19.6217 46.0098 19.5345 45.7543 19.4583C42.7477 18.5611 38.8196 19.1743 35 21.1742C34.9206 21.2158 34.8412 21.258 34.7619 21.3008C33.4548 22.0058 32.163 22.8733 30.9278 23.8983C29.0572 25.4506 27.5178 27.1972 26.3529 29C26.2919 29.0944 26.232 29.189 26.173 29.2837C24.1999 32.4538 23.3853 35.7742 23.9638 38.5L23.9645 38.5037C24.2011 39.6157 24.6696 40.6287 25.386 41.492C26.9781 43.4105 29.5225 44.262 32.4408 44.116C35.9873 43.9385 40.0861 42.2879 43.6999 39.289C43.9867 39.0509 44.2658 38.8083 44.537 38.5616Z" fill="#EE3A3A"/>
<path d="M49.2417 21.6953C48.3462 20.6162 47.1494 19.8747 45.7543 19.4583M49.2417 21.6953C48.5101 20.8138 47.5775 20.1575 46.5 19.7198M49.2417 21.6953C50.7175 23.4737 51.1413 25.8872 50.6525 28.4934M30.9278 23.8983C29.0572 25.4506 27.5178 27.1972 26.3529 29M30.9278 23.8983C32.163 22.8733 33.4548 22.0058 34.7619 21.3008M30.9278 23.8983C28.9593 25.5319 27.3574 27.3807 26.173 29.2837M130 66C130 51.0941 124.904 37.3785 116.36 26.5M130 66C130 69.5403 129.713 73.0136 129.16 76.3976C129.109 76.7088 129.056 77.0194 129 77.3291M130 66C130 50.536 124.515 36.353 115.386 25.2901M66 130C81.1139 130 95.0041 124.761 105.954 116M66 130C63.7909 130 61.6079 129.888 59.4564 129.67M66 130C97.4802 130 123.652 107.271 129 77.3291M2 66C2 77.6572 5.11662 88.5865 10.5621 98M2 66C2 58.268 3.37113 50.8563 5.8835 43.9947M2 66C2 99.1371 27.184 126.392 59.4564 129.67M66 2C55.561 2 45.7058 4.49926 37 8.93206M66 2C38.3858 2 14.8563 19.4889 5.8835 43.9947M66 2C85.8822 2 103.647 11.0662 115.386 25.2901M26.3529 29C19.8529 27.5 10.6521 33.5915 6.65214 42M26.3529 29C26.2919 29.0944 26.232 29.189 26.173 29.2837M6.65214 42C12.4563 27.6612 23.3062 15.9047 37 8.93206M6.65214 42C6.38518 42.6595 6.1289 43.3244 5.8835 43.9947M44.5 38.5C44.5123 38.5205 44.5246 38.5411 44.537 38.5616M105.954 116C79.6662 97.1194 56.7892 58.9852 44.7275 38.8793M105.954 116C117.68 106.617 126.034 93.1951 128.907 77.8423M23.9638 38.5C7.46375 49 5.53141 84 10.5621 98M23.9638 38.5L23.9645 38.5037M23.9638 38.5C23.3853 35.7742 24.1999 32.4538 26.173 29.2837M10.5621 98C20.523 115.219 38.2762 127.367 59 129.622M32.5 44C32.4802 44.0386 32.4605 44.0773 32.4408 44.116M59 129.622C36.5334 121.512 19.2207 70.1528 32.4408 44.116M59 129.622C59.152 129.638 59.3041 129.654 59.4564 129.67M50.5465 29C85.5465 29.5 119 54 128.907 77.8423M50.5465 29C49.8065 32.2109 47.7187 35.6666 44.537 38.5616M50.5465 29C50.5856 28.8304 50.6209 28.6615 50.6525 28.4934M128.907 77.8423C128.938 77.6715 128.97 77.5004 129 77.3291M46.5 19.7198C67 3.21977 104.86 14.1726 116.36 26.5M46.5 19.7198C46.2585 19.6217 46.0098 19.5345 45.7543 19.4583M116.36 26.5C116.04 26.0927 115.715 25.6894 115.386 25.2901M35 21.1742C33.5 19.6742 33.9612 11.3924 37 8.93206M35 21.1742C34.9206 21.2158 34.8412 21.258 34.7619 21.3008M35 21.1742C38.8196 19.1743 42.7477 18.5611 45.7543 19.4583M44.7275 38.8793L44.537 38.5616M44.7275 38.8793C44.6637 38.7729 44.6002 38.667 44.537 38.5616M44.537 38.5616C44.2658 38.8083 43.9867 39.0509 43.6999 39.289C40.0861 42.2879 35.9873 43.9385 32.4408 44.116M44.537 38.5616C47.8867 35.5137 50.024 31.8443 50.6525 28.4934M32.4408 44.116C29.5225 44.262 26.9781 43.4105 25.386 41.492C24.6696 40.6287 24.2011 39.6157 23.9645 38.5037M23.9645 38.5037C23.3845 35.7773 24.199 32.4553 26.173 29.2837M34.7619 21.3008C38.6559 19.2005 42.6852 18.5424 45.7543 19.4583" stroke="#13192E" stroke-width="4"/>
</svg>
