<svg width="137" height="115" viewBox="0 0 137 115" fill="none" xmlns="http://www.w3.org/2000/svg">
<path fill-rule="evenodd" clip-rule="evenodd" d="M57 1.49997C69.5447 2.92886 80.9999 11.4999 83.9999 26.5C85.8825 35.9132 84.0343 43.1888 78.9999 51.9999C77 55.5 74.0736 57.7388 74.4999 61.9999C75 67 91.8567 65.714 100.057 61.0233C105.211 58.075 107.135 54.8975 110.634 50.0999C118 39.9999 124.386 43.9999 126.911 50.4998C131 61.0233 135.12 73.6623 135.12 89.1552C135.12 104.648 120.443 113.21 120.443 113.21H23.9999C23.9999 113.21 14.2662 104.126 12.9113 95.9998C11.5633 87.915 13.5 81 17.4113 75.4998C22.7602 67.978 30.5 61.0233 30.5 57.5C30.5 55 24 45 24 45C24 45 30.3115 40.0383 29.5 36C28.6354 31.6981 20 30 20 30C18.3747 25.5 22 16.5001 26 12C33.4922 3.57106 45.795 0.223678 57 1.49997Z" fill="#FBDA64"/>
<path d="M2.08855 37.5002C7.58855 45.5002 24 45 24 45C24 45 30.3115 40.0383 29.5 36C28.6354 31.6981 20 30 20 30C20 30 -3.58556 29.247 2.08855 37.5002Z" fill="#FF8C5B"/>
<path d="M20 30C20 30 -3.58556 29.247 2.08855 37.5002C7.58855 45.5002 24 45 24 45M20 30C20 30 28.6354 31.6981 29.5 36C30.3115 40.0383 24 45 24 45M20 30C18.3747 25.5 22 16.5001 26 12C33.4922 3.57106 45.795 0.223678 57 1.49997C69.5447 2.92886 80.9999 11.4999 83.9999 26.5C85.8825 35.9132 84.0343 43.1888 78.9999 51.9999C77 55.5 74.0736 57.7388 74.4999 61.9999C75 67 91.8567 65.714 100.057 61.0233C105.211 58.075 107.135 54.8975 110.634 50.0999C118 39.9999 124.386 43.9999 126.911 50.4998C131 61.0233 135.12 73.6623 135.12 89.1552C135.12 104.648 120.443 113.21 120.443 113.21H23.9999C23.9999 113.21 14.2662 104.126 12.9113 95.9998C11.5633 87.915 13.5 81 17.4113 75.4998C22.7602 67.978 30.5 61.0233 30.5 57.5C30.5 55 24 45 24 45" stroke="#13192E" stroke-width="2"/>
<ellipse cx="35" cy="24.5" rx="4" ry="3.5" fill="#13192E"/>
</svg>
