<svg width="139" height="117" viewBox="0 0 139 117" fill="none" xmlns="http://www.w3.org/2000/svg">
<path fill-rule="evenodd" clip-rule="evenodd" d="M58 2.49997C70.5447 3.92886 81.9999 12.4999 84.9999 27.5C86.8825 36.9132 85.0343 44.1888 79.9999 52.9999C78 56.5 75.0736 58.7388 75.4999 62.9999C76 68 92.8567 66.714 101.057 62.0233C106.211 59.075 108.135 55.8975 111.634 51.0999C119 40.9999 125.386 44.9999 127.911 51.4998C132 62.0233 136.12 74.6623 136.12 90.1552C136.12 105.648 121.443 114.21 121.443 114.21H24.9999C24.9999 114.21 15.2662 105.126 13.9113 96.9998C12.5633 88.915 14.5 82 18.4113 76.4998C23.7602 68.978 31.5 62.0233 31.5 58.5C31.5 56 25 46 25 46C25 46 31.3115 41.0383 30.5 37C29.6354 32.6981 21 31 21 31C19.3747 26.5 23 17.5001 27 13C34.4922 4.57106 46.795 1.22368 58 2.49997Z" fill="#FBDA64"/>
<path d="M3.08855 38.5002C8.58855 46.5002 25 46 25 46C25 46 31.3115 41.0383 30.5 37C29.6354 32.6981 21 31 21 31C21 31 -2.58556 30.247 3.08855 38.5002Z" fill="#FF8C5B"/>
<path d="M21 31C21 31 -2.58556 30.247 3.08855 38.5002C8.58855 46.5002 25 46 25 46M21 31C21 31 29.6354 32.6981 30.5 37C31.3115 41.0383 25 46 25 46M21 31C19.3747 26.5 23 17.5001 27 13C34.4922 4.57106 46.795 1.22368 58 2.49997C70.5447 3.92886 81.9999 12.4999 84.9999 27.5C86.8825 36.9132 85.0343 44.1888 79.9999 52.9999C78 56.5 75.0736 58.7388 75.4999 62.9999C76 68 92.8567 66.714 101.057 62.0233C106.211 59.075 108.135 55.8975 111.634 51.0999C119 40.9999 125.386 44.9999 127.911 51.4998C132 62.0233 136.12 74.6623 136.12 90.1552C136.12 105.648 121.443 114.21 121.443 114.21H24.9999C24.9999 114.21 15.2662 105.126 13.9113 96.9998C12.5633 88.915 14.5 82 18.4113 76.4998C23.7602 68.978 31.5 62.0233 31.5 58.5C31.5 56 25 46 25 46" stroke="#13192E" stroke-width="4"/>
<ellipse cx="36" cy="25.5" rx="4" ry="3.5" fill="#13192E"/>
</svg>
