<svg width="56" height="56" viewBox="0 0 56 56" fill="none" xmlns="http://www.w3.org/2000/svg">
<path d="M8.97477 8.97478C10.3116 7.63799 12.7801 6.34313 16.3111 5.40153C19.7594 4.48198 23.8446 4 28 4C32.1554 4 36.2406 4.48198 39.6889 5.40153C43.2199 6.34313 45.6885 7.63799 47.0252 8.97478C48.362 10.3116 49.6569 12.7802 50.5985 16.3112C51.518 19.7594 52 23.8446 52 28C52 32.1554 51.518 36.2406 50.5985 39.6889C49.6569 43.2199 48.362 45.6885 47.0252 47.0252C45.6885 48.362 43.2199 49.6569 39.6889 50.5985C36.2406 51.518 32.1554 52 28 52C23.8446 52 19.7594 51.518 16.3111 50.5985C12.7801 49.6569 10.3116 48.362 8.97477 47.0252C7.63799 45.6884 6.34312 43.2199 5.40153 39.6889C4.48198 36.2406 4 32.1554 4 28C4 23.8446 4.48198 19.7594 5.40153 16.3112C6.34312 12.7802 7.63799 10.3116 8.97477 8.97478Z" stroke="white" stroke-width="8"/>
</svg>
