<svg width="128" height="122" viewBox="0 0 128 122" fill="none" xmlns="http://www.w3.org/2000/svg">
<path d="M18.7343 24.5774C15.4726 25.5559 5.27954 21.3157 2.42589 23.3542C-0.427762 25.3928 14.6572 38.4395 14.6569 40.478C14.6565 42.5166 9.35632 44.5551 9.76434 46.186C10.1724 47.8168 24.4418 50.263 24.4418 50.263C24.4418 50.263 28.5193 47.4091 28.927 44.5551C29.3347 41.7012 18.7343 24.5774 18.7343 24.5774Z" fill="#FF8C5B"/>
<path d="M85.1905 30.2853C85.1905 20.5003 74.9978 -0.292893 50.1275 0.930235C32.0458 1.8195 25.8174 13.2688 22.1975 19.923C20.8385 22.4212 19.8471 24.2435 18.7343 24.5774C18.7343 24.5774 29.3347 41.7012 28.927 44.5551C28.5193 47.4091 24.4418 50.263 24.4418 50.263C24.4418 50.263 27.7035 55.1556 27.2961 58.0095C26.9873 60.173 21.5236 62.8052 17.2994 64.8402C15.9514 65.4896 14.7295 66.0782 13.8417 66.5714C10.1721 68.61 0.870793 78.1131 0.794951 93.0725C0.756838 100.59 0.795055 106.935 13.026 116.72C25.257 126.505 107.615 117.943 113.322 115.089C119.03 112.235 128 106.527 128 91.034C128 75.541 120.254 63.7174 120.254 63.7174C120.254 63.7174 119.03 61.6789 119.03 53.5247C119.03 45.3705 113.191 42.0032 107.615 46.186C106.473 47.0419 105.092 49.3454 103.514 51.9787C100.581 56.8712 96.9658 62.902 92.937 62.902C86.7398 62.902 78.3323 58.5531 74.9032 56.3787C75.2108 55.9923 75.5145 55.5849 75.8132 55.1556C82.3365 45.7782 85.1905 40.0703 85.1905 30.2853Z" fill="#FBDA64"/>
</svg>
